# xmcd
#
# Track frame offsets:
#	150
#	22973
#	34462
#	45379
#	61488
#	73882
#	90561
#	106406
#	118369
#	132051
#	144663
#	159307
#	168163
#	188059
#	198236
#	214418
#	225680
#	236382
#	254901
#	268238
#	277709
#	289800
#	301352
#	312291
#	327875
#	340075
#	351862
#
# Disc length: 4849 seconds
#
# Revision: 0
# Processed by: cddbd v1.5.1PL2 Copyright (c) Steve Scherf et al.
# Submitted via: EasyCDDAExtractor 4.6.9.1
#
DISCID=9812ef1b
DTITLE=Johnny Cash - The Man In Black - 1963-1969 - CD 5
DYEAR=1995
DGENRE=Country
TTITLE0=The Christmas Spirit
TTITLE1=I Heard THe Bells On Christmas Day
TTITLE2=Blue Christmas
TTITLE3=The Gifts They Gave
TTITLE4=Here Was A Man
TTITLE5=Christmas As I Knew It
TTITLE6=Silent Night
TTITLE7=The Little Drummer Boy
TTITLE8=It Came Upon A Midnight Clear
TTITLE9=Ringing The Bells For Jim
TTITLE10=We Are The Shepherds
TTITLE11=Who Kept The Sheep
TTITLE12=The Ballad Of The Harp Weaver
TTITLE13=Wildwood Flower
TTITLE14=Engine 143
TTITLE15=Keep On The Sunnyside
TTITLE16=Single Girl, Married Girl
TTITLE17=The Banks Of The Ohio
TTITLE18=My Clinch Mountain Home
TTITLE19=Lonesome Valley
TTITLE20=Worried Man Blues
TTITLE21=The Wabash Cannonball
TTITLE22=Brown Hearted Lover
TTITLE23=Brown Eyes
TTITLE24=I'm Working On A Building
TTITLE25=Gathering Flowers From The Hillside
TTITLE26=When THe Roses Bloom Again
EXTD=
EXTT0=
EXTT1=
EXTT2=
EXTT3=
EXTT4=
EXTT5=
EXTT6=
EXTT7=
EXTT8=
EXTT9=
EXTT10=
EXTT11=
EXTT12=
EXTT13=
EXTT14=
EXTT15=
EXTT16=
EXTT17=
EXTT18=
EXTT19=
EXTT20=
EXTT21=
EXTT22=
EXTT23=
EXTT24=
EXTT25=
EXTT26=
PLAYORDER=
